<?xml version="1.0" encoding="UTF-8"?>
<!DOCTYPE svg PUBLIC "-//W3C//DTD SVG 1.1//EN" "http://www.w3.org/Graphics/SVG/1.1/DTD/svg11.dtd">
<svg xmlns="http://www.w3.org/2000/svg" version="1.1" width="1200px" height="704px" style="shape-rendering:geometricPrecision; text-rendering:geometricPrecision; image-rendering:optimizeQuality; fill-rule:evenodd; clip-rule:evenodd" xmlns:xlink="http://www.w3.org/1999/xlink">
<g><path style="opacity:0.978" fill="#005494" d="M 748.5,-0.5 C 752.833,-0.5 757.167,-0.5 761.5,-0.5C 825.728,10.6302 887.395,30.1302 946.5,58C 972.651,71.5729 998.318,85.9062 1023.5,101C 1025.62,102.171 1026.28,103.671 1025.5,105.5C 986.672,90.6262 946.672,80.1262 905.5,74C 828.686,61.3433 751.686,60.1766 674.5,70.5C 672.833,70.1667 671.167,69.8333 669.5,69.5C 693.425,43.2293 719.758,19.896 748.5,-0.5 Z"/></g>
<g><path style="opacity:0.995" fill="#f78b1f" d="M 644.5,303.5 C 629.5,293.683 615.167,282.849 601.5,271C 591.063,260.627 580.063,250.96 568.5,242C 565.968,239.471 564.302,236.471 563.5,233C 577.762,197.294 596.262,164.128 619,133.5C 621.372,130.09 623.205,126.423 624.5,122.5C 747.492,90.539 870.826,89.3723 994.5,119C 1029.97,128.933 1064.97,140.267 1099.5,153C 1101.3,153.637 1102.64,154.803 1103.5,156.5C 977.574,155.9 858.574,184.066 746.5,241C 711.303,260.088 677.303,280.921 644.5,303.5 Z"/></g>
<g><path style="opacity:0.985" fill="#f6be86" d="M 624.5,122.5 C 623.205,126.423 621.372,130.09 619,133.5C 596.262,164.128 577.762,197.294 563.5,233C 564.302,236.471 565.968,239.471 568.5,242C 580.063,250.96 591.063,260.627 601.5,271C 615.167,282.849 629.5,293.683 644.5,303.5C 634.309,312.516 623.642,321.016 612.5,329C 601.5,338.667 590.5,348.333 579.5,358C 561.227,375.436 543.893,393.603 527.5,412.5C 525.622,351.06 536.288,291.893 559.5,235C 542.08,216.638 525.247,197.804 509,178.5C 506.634,174.964 504.467,171.297 502.5,167.5C 541.702,148.567 582.368,133.567 624.5,122.5 Z"/></g>
<g><path style="opacity:0.99" fill="#005494" d="M 1199.5,414.5 C 1199.5,433.833 1199.5,453.167 1199.5,472.5C 1163.33,470.368 1134.16,483.368 1112,511.5C 1092.16,543.992 1092.82,575.992 1114,607.5C 1132.2,628.686 1155.37,640.519 1183.5,643C 1188.82,643.499 1194.16,643.666 1199.5,643.5C 1199.5,663.167 1199.5,682.833 1199.5,702.5C 1146.97,704.464 1099.97,689.631 1058.5,658C 1039.35,641.854 1025.51,622.021 1017,598.5C 1015.65,628.816 1015.15,659.149 1015.5,689.5C 990.494,689.519 965.494,689.186 940.5,688.5C 940.666,680.826 940.5,673.159 940,665.5C 904.647,691.869 865.481,699.369 822.5,688C 805.213,683.612 790.713,674.779 779,661.5C 774.612,655.391 771.279,648.724 769,641.5C 768.586,657.506 768.086,673.506 767.5,689.5C 741.833,689.5 716.167,689.5 690.5,689.5C 690.281,640.831 689.781,592.164 689,543.5C 684.292,519.785 669.958,507.118 646,505.5C 624.979,506.517 610.645,516.85 603,536.5C 601.355,542.392 600.355,548.392 600,554.5C 599.5,599.499 599.333,644.499 599.5,689.5C 573.5,689.5 547.5,689.5 521.5,689.5C 520.586,657.511 520.253,625.511 520.5,593.5C 459.502,592.667 398.502,592.5 337.5,593C 344.48,617.307 360.48,631.974 385.5,637C 394.788,638.276 404.121,638.776 413.5,638.5C 414.333,656.82 414.666,675.154 414.5,693.5C 372.675,697.272 335.009,686.772 301.5,662C 289.027,650.199 278.86,636.699 271,621.5C 264.877,653.91 246.711,676.743 216.5,690C 197.384,697.519 177.718,702.019 157.5,703.5C 146.833,703.5 136.167,703.5 125.5,703.5C 79.2703,700.423 37.2703,685.423 -0.5,658.5C -0.5,657.167 -0.5,655.833 -0.5,654.5C 11.9664,641.865 24.2997,629.032 36.5,616C 38.8704,613.63 41.7038,612.13 45,611.5C 57.1943,619.02 69.6943,626.186 82.5,633C 108.092,644.366 134.759,648.033 162.5,644C 172.643,642.513 181.143,638.013 188,630.5C 195.968,615.866 192.801,604.366 178.5,596C 171.462,592.543 164.128,589.876 156.5,588C 128.57,582.014 100.904,575.014 73.5,567C 15.6024,546.703 -1.56423,508.203 22,451.5C 34.7825,432.07 52.2825,418.57 74.5,411C 98.9802,403.652 123.98,400.985 149.5,403C 160.875,403.839 172.208,405.005 183.5,406.5C 183.833,427.177 183.5,447.844 182.5,468.5C 167.374,464.575 152.041,461.742 136.5,460C 123.363,458.961 111.03,461.627 99.5,468C 88.8952,476.77 86.7285,487.27 93,499.5C 97.8915,504.7 103.725,508.534 110.5,511C 136.671,518.301 163.005,524.968 189.5,531C 209.255,536.38 227.588,544.714 244.5,556C 249.367,560.532 253.867,565.366 258,570.5C 262.281,508.231 294.114,467.731 353.5,449C 394.109,438.392 432.776,443.059 469.5,463C 497.503,481.472 514.67,507.306 521,540.5C 536.597,476.928 577.263,445.595 643,446.5C 675.711,445.074 705.211,453.908 731.5,473C 751.651,491.801 763.485,514.967 767,542.5C 768.212,559.803 768.878,577.136 769,594.5C 781.398,563.795 804.231,547.295 837.5,545C 851.953,543.259 866.453,542.092 881,541.5C 900.242,542.744 919.409,543.911 938.5,545C 939.901,531.135 934.568,520.468 922.5,513C 907.719,505.577 892.053,502.744 875.5,504.5C 875.5,485.167 875.5,465.833 875.5,446.5C 895.217,446.023 914.884,446.689 934.5,448.5C 979.39,455.891 1005.89,481.891 1014,526.5C 1029.49,479.01 1060.66,446.51 1107.5,429C 1137.24,418.286 1167.9,413.453 1199.5,414.5 Z M 386.5,499.5 C 417.572,497.774 438.405,511.44 449,540.5C 449.978,543.669 449.478,546.503 447.5,549C 410.792,549.827 374.125,549.66 337.5,548.5C 342.061,520.606 358.394,504.273 386.5,499.5 Z M 888.5,586.5 C 899.172,586.333 909.839,586.5 920.5,587C 926.581,587.138 932.581,587.804 938.5,589C 940.974,591.041 941.974,593.708 941.5,597C 940.016,617.141 930.016,631.141 911.5,639C 894.731,645.465 877.731,646.132 860.5,641C 849.974,637.141 842.807,629.974 839,619.5C 837.911,610.507 841.078,603.34 848.5,598C 861.027,591.038 874.361,587.205 888.5,586.5 Z"/></g>
</svg>
